<svg id="Ebene_1" data-name="Ebene 1" xmlns="http://www.w3.org/2000/svg" viewBox="0 0 496.46 496.46"><defs><style>.cls-1{fill:#878787;stroke:#575756;stroke-width:11px;}.cls-1,.cls-2,.cls-3,.cls-6{stroke-miterlimit:10;}.cls-2{fill:#be1622;stroke:#1d1d1b;}.cls-2,.cls-3{stroke-width:35px;}.cls-3{fill:none;stroke:#253164;}.cls-4{fill:#025274;}.cls-5{fill:#36a9e1;}.cls-6{fill:#cbc2b1;stroke:#cbbba0;stroke-width:0.75px;}</style></defs><rect class="cls-1" x="111.76" y="157" width="393.5" height="393.5" rx="85.75" transform="translate(-220.06 216.24) rotate(-45)"/><path class="cls-2" d="M360.51,445.3c-9,4.2-26.88,9-50.12,9-52.92,0-93-33.88-93-95.76,0-59.08,40-98.84,98.56-98.84,23.24,0,38.36,4.76,44.8,8.12l-5.88,19.88c-9.24-4.48-22.4-7.84-38.08-7.84-44.24,0-73.64,28.28-73.64,77.84,0,46.2,26.6,75.88,72.52,75.88,14.84,0,30-3.08,39.76-7.84Z" transform="translate(-60.28 -105.52)"/><path class="cls-3" d="M357.24,430.12c-9,4.2-26.88,9-50.12,9-52.92,0-93-33.88-93-95.76,0-59.08,40-98.84,98.56-98.84,23.24,0,38.36,4.76,44.8,8.12l-5.88,19.88c-9.24-4.48-22.4-7.84-38.08-7.84-44.24,0-73.64,28.28-73.64,77.84,0,46.2,26.6,75.88,72.52,75.88,14.84,0,30-3.08,39.76-7.84Z" transform="translate(-60.28 -105.52)"/><polygon class="cls-4" points="318.02 138.96 309.34 164.93 300.65 190.91 282.5 170.4 264.35 149.89 291.19 144.42 318.02 138.96"/><polygon class="cls-4" points="194.62 229.15 170.96 242.95 147.3 256.74 147.18 229.35 147.07 201.96 170.84 215.56 194.62 229.15"/><polygon class="cls-5" points="193.03 166.84 193.28 194.23 193.53 221.61 169.69 208.13 145.85 194.66 169.44 180.75 193.03 166.84"/><polygon class="cls-5" points="207.2 132.72 233.15 141.47 259.11 150.21 238.56 168.31 218 186.42 212.6 159.57 207.2 132.72"/><path class="cls-6" d="M260.89,491.88h7.64v39.54h-7.64Zm23.21,15.58a9.43,9.43,0,0,0-2-6.47,7.24,7.24,0,0,0-5.73-2.29,7.84,7.84,0,0,0-5.78,2,7.63,7.63,0,0,0-2,5.67l-.79-7.61a14,14,0,0,1,4.7-5.53,11.31,11.31,0,0,1,6.42-1.94,12.4,12.4,0,0,1,7,1.89,11.78,11.78,0,0,1,4.4,5.5,22.53,22.53,0,0,1,1.52,8.72v24H284.1Zm23.21,0a9.13,9.13,0,0,0-2.13-6.47,7.78,7.78,0,0,0-6-2.29,7,7,0,0,0-5.51,2.21,9.17,9.17,0,0,0-1.94,6.25l-1.54-7.62a15.13,15.13,0,0,1,4.85-6.08,11.2,11.2,0,0,1,6.64-2.15,13.08,13.08,0,0,1,7.17,1.89,11.71,11.71,0,0,1,4.53,5.5,22,22,0,0,1,1.56,8.72v24h-7.64Z" transform="translate(-60.28 -105.52)"/><path class="cls-6" d="M333.25,529.93a13.69,13.69,0,0,1-5.82-6,21.3,21.3,0,0,1-2-9.62v-4.46a23.52,23.52,0,0,1,1.93-10,14,14,0,0,1,5.59-6.33,17.14,17.14,0,0,1,8.84-2.17,13.88,13.88,0,0,1,8.31,2.48,15.34,15.34,0,0,1,5.26,7.16,31.11,31.11,0,0,1,1.81,11.23v2.59H331v-6.24h18.94a13.46,13.46,0,0,0-2.45-7.53,6.87,6.87,0,0,0-5.67-2.68,8.22,8.22,0,0,0-6.72,2.89q-2.38,2.9-2.38,8.19v5q0,4.92,2.55,7.54t7.22,2.63a12,12,0,0,0,4.61-1,13.46,13.46,0,0,0,4.08-2.67l5,5.1a21.18,21.18,0,0,1-6.47,4.37,18.36,18.36,0,0,1-7.23,1.54A19.22,19.22,0,0,1,333.25,529.93Z" transform="translate(-60.28 -105.52)"/></svg>